{"accessors":[{"bufferView":2,"byteOffset":0,"componentType":5126,"count":9780,"max":[1,1,1,1],"min":[0.00005692175545846112,0.08919350802898407,0.03994716703891754,1],"name":"accessor_color_m0-PolyPaper12_-440638","type":"VEC4"},{"bufferView":2,"byteOffset":156480,"componentType":5126,"count":1356,"max":[1,1,1,1],"min":[0.006584956776350737,0.006584956776350737,0.006584956776350737,1],"name":"accessor_color_m1-PolyPaper23_-440742","type":"VEC4"},{"bufferView":0,"byteOffset":0,"componentType":5123,"count":13416,"max":[9779],"min":[0],"name":"accessor_indices_0_m0-PolyPaper12_-440638","type":"SCALAR"},{"bufferView":0,"byteOffset":26832,"componentType":5123,"count":1860,"max":[1355],"min":[0],"name":"accessor_indices_0_m1-PolyPaper23_-440742","type":"SCALAR"},{"bufferView":1,"byteOffset":117360,"componentType":5126,"count":9780,"max":[0.9990097,0.998524,0.9995663],"min":[-0.9982765,-0.9982756,-0.9995539],"name":"accessor_normal_m0-PolyPaper12_-440638","type":"VEC3"},{"bufferView":1,"byteOffset":250992,"componentType":5126,"count":1356,"max":[0.9859151,0.9999669,0.9999409],"min":[-0.9967385,-0.9999669,-0.9999409],"name":"accessor_normal_m1-PolyPaper23_-440742","type":"VEC3"},{"bufferView":1,"byteOffset":0,"componentType":5126,"count":9780,"max":[1.037137,1.764981,1.587344],"min":[-1.677708,-2.574092,0.6469213],"name":"accessor_position_m0-PolyPaper12_-440638","type":"VEC3"},{"bufferView":1,"byteOffset":234720,"componentType":5126,"count":1356,"max":[-0.1873223,1.335402,1.614466],"min":[-1.031434,-0.6088253,0.7194159],"name":"accessor_position_m1-PolyPaper23_-440742","type":"VEC3"}],"asset":{"copyright":"Unknown","extras":{"GOOGLE_processor_version":294144208},"generator":"glTF 1-to-2 Upgrader for Google Blocks","version":"2.0"},"bufferViews":[{"buffer":0,"byteLength":30552,"byteOffset":0,"name":"ushortBufferView","target":34963},{"buffer":0,"byteLength":267264,"byteOffset":30552,"byteStride":12,"name":"vec3BufferView","target":34962},{"buffer":0,"byteLength":178176,"byteOffset":297816,"byteStride":16,"name":"vec4BufferView","target":34962}],"buffers":[{"byteLength":475992,"name":"model","uri":"data:application/octet-stream;base64,"}],"cameras":[{"perspective":{"yfov":0.7853981633974483,"znear":0.1000000014901161},"type":"perspective"}],"extensions":{"KHR_lights_punctual":{"lights":[{"color":[1,0.9333333333333333,0.8666666666666667],"intensity":0.25,"name":"headLight","type":"directional"},{"color":[1,0.9333333333333333,0.8666666666666667],"intensity":0.324999988079071,"name":"keyLight","type":"directional"}]}},"extensionsUsed":["GOOGLE_backgrounds","GOOGLE_camera_settings","KHR_lights_punctual"],"extras":{"GOOGLE_initial_camera_motion":{"motionPath":"FULL_ROTATION"},"GOOGLE_lighting_rig":{"disableShadows":false}},"materials":[{"alphaMode":"OPAQUE","doubleSided":false,"name":"BlocksPaper","pbrMetallicRoughness":{"baseColorFactor":[1,1,1,1],"metallicFactor":0,"roughnessFactor":0.6}},{"alphaMode":"BLEND","doubleSided":false,"name":"BlocksGlass","pbrMetallicRoughness":{"baseColorFactor":[0.2,0.2,1,0.3],"metallicFactor":1,"roughnessFactor":0.4}},{"alphaMode":"OPAQUE","doubleSided":true,"name":"BlocksGem","pbrMetallicRoughness":{"baseColorFactor":[1,0.4,1,1],"metallicFactor":0,"roughnessFactor":0.1}}],"meshes":[{"name":"mesh_m0-PolyPaper12_-440638","primitives":[{"attributes":{"COLOR_0":0,"NORMAL":4,"POSITION":6},"indices":2,"material":0,"mode":4}]},{"name":"mesh_m1-PolyPaper23_-440742","primitives":[{"attributes":{"COLOR_0":1,"NORMAL":5,"POSITION":7},"indices":3,"material":0,"mode":4}]}],"nodes":[{"mesh":1,"name":"node_MeshObject-1481605184-PolyPaper23"},{"mesh":0,"name":"node_MeshObject-612992384-PolyPaper12"},{"children":[3]},{"children":[4],"extras":{"isTransformNode":1},"translation":[-0.5903174767686868,-0.2949424009953267,1.151356550705201]},{"children":[1,0],"translation":[0.5903174767686868,0.2949424009953267,-1.151356550705201]},{"camera":0,"children":[6],"rotation":[0.00001562975791166827,0.9980970451524813,0.0002529916338854896,-0.06166217810643367],"translation":[-1.80628602772072,-0.2887985366323464,-8.649652480909182]},{"extensions":{"KHR_lights_punctual":{"light":0}},"extras":{"isHeadLight":1},"name":"headLightNode","translation":[-3.305960734929252,1.652980367464626,1.652980367464626]},{"extensions":{"KHR_lights_punctual":{"light":1}},"extras":{"isKeyLight":1},"name":"keyLightNode","rotation":[-0.7505326882858236,-0.3752663441429118,0,0.5439447166468927],"scale":[0,0,3.339020342278544],"translation":[-3.751174278302095,7.085149055590711,-2.272109456875675]}],"scene":0,"scenes":[{"extensions":{"GOOGLE_backgrounds":{"color":[0.1568627450980392,0.207843137254902,0.5764705882352941]},"GOOGLE_camera_settings":{}},"extras":{"GOOGLE_camera_index":{"cameraIndex":0,"nodeIndex":5},"GOOGLE_geometry_data":{"stats":{"centroid":[-0.4121539360235513,0.4071083710336222,1.066910885402869],"radius":3.305960734929252,"stdev":1.36865432068404},"visualCenterPoint":[-0.5903174767686868,-0.2949424009953267,1.151356550705201]},"GOOGLE_hemi_light":{"groundColor":[0.1568627450980392,0.207843137254902,0.5764705882352941]}},"name":"defaultScene","nodes":[2,5,7]}]}